<?xml version="1.0" encoding="UTF-8" standalone="no"?>
<!-- Created with Inkscape (http://www.inkscape.org/) -->

<svg
   version="1.1"
   id="svg9"
   width="195.84"
   height="195.84"
   viewBox="0 0 195.84 195.84"
   sodipodi:docname="Pinapple.svg"
   inkscape:version="1.2.2 (732a01da63, 2022-12-09)"
   xmlns:inkscape="http://www.inkscape.org/namespaces/inkscape"
   xmlns:sodipodi="http://sodipodi.sourceforge.net/DTD/sodipodi-0.dtd"
   xmlns="http://www.w3.org/2000/svg"
   xmlns:svg="http://www.w3.org/2000/svg">
  <defs
     id="defs13" />
  <sodipodi:namedview
     id="namedview11"
     pagecolor="#ffffff"
     bordercolor="#000000"
     borderopacity="0.25"
     inkscape:showpageshadow="2"
     inkscape:pageopacity="0.0"
     inkscape:pagecheckerboard="0"
     inkscape:deskcolor="#d1d1d1"
     showgrid="false"
     inkscape:zoom="3.6662582"
     inkscape:cx="57.824623"
     inkscape:cy="97.919998"
     inkscape:window-width="1513"
     inkscape:window-height="921"
     inkscape:window-x="282"
     inkscape:window-y="61"
     inkscape:window-maximized="0"
     inkscape:current-layer="g15" />
  <g
     inkscape:groupmode="layer"
     inkscape:label="Image"
     id="g15">
    <path
       style="fill:#444444;stroke:none;stroke-width:0.32"
       d="m 86.767243,51.116211 c -4.30304,-0.33952 -8.5552,-0.61664 -12.8,0.44 -1.45184,0.36128 -4.279041,1.20672 -3.129921,3.328 0.796801,1.47136 3.637121,1.96288 5.049921,2.6704 3.568,1.78752 7.31104,5.04672 7.68,9.2416 -3.69216,-0.29152 -7.22336,-0.45408 -10.88,0.3952 -1.26368,0.29376 -3.084161,0.6384 -3.346561,2.1696 -0.40864,2.38656 4.307521,3.19456 5.906561,3.93408 4.14144,1.91616 11.01728,7.03264 10.62976,12.37632 -0.13888,1.91104 -3.82272,3.24032 -5.18976,4.3008 -3.53536,2.74336 -6.376,6.336 -8.22016,10.423999 -3.028161,6.71201 -2.339841,13.94849 -2.339841,21.12001 0,14.00352 -0.9008,27.28768 11.840001,36.4304 2.27808,1.63488 4.99136,2.94464 7.68,3.74944 14.650877,4.38432 30.619517,-3.66336 35.191997,-18.41984 2.42368,-7.8224 1.288,-16.86016 1.288,-24.96 0,-11.48384 -2.27168,-26.896649 -15.36,-31.040009 1.72512,-3.76352 6.41504,-6.43712 9.92,-8.3632 1.31584,-0.7232 3.32064,-1.11456 4.28672,-2.3216 2.31552,-2.89312 -2.97216,-3.51488 -4.60672,-3.6992 -1.2864,-0.14496 -2.5424,-0.3296 -3.84,-0.33568 l -6.08,-3.2e-4 c 2.40224,-3.11392 5.09312,-5.50016 8.64,-7.2736 1.5792,-0.78976 5.03776,-1.2784 6.0224,-2.78048 1.36576,-2.0832 -1.32128,-3.07296 -2.8224,-3.47072 -3.82272,-1.01312 -9.24704,-2.34016 -13.12,-1.1952 -0.88928,-4.57312 2.8512,-10.60704 5.48192,-14.08 1.12256,-1.48192 4.51328,-3.85856 3.55904,-6.00704 -0.68544,-1.54304 -2.9728,-0.94816 -4.24096,-0.73856 -2.90144,0.47936 -5.68672,1.34848 -8.32,2.66496 -0.98432,0.49216 -2.66912,1.93024 -3.8112,1.66848 -1.58208,-0.36224 -3.249597,-3.12672 -4.508797,-4.15904 -2.95936,-2.42688 -6.36704,-4.23008 -9.92,-5.60832 -1.39744,-0.54208 -4.15616,-2.154112 -5.52224,-0.74752 -1.43872,1.4816 0.68096,3.944 1.4064,5.24704 2.53632,4.5568 3.47584,9.88352 3.47584,15.04 m 0.96,-15.36 8.54848,5.62528 1.99968,3.01472 -2.13568,2.88 -3.93248,5.76 c -1.87744,-0.69024 -1.5104,-2.1168 -1.6288,-3.84 -0.19136,-2.79488 -0.61856,-5.624 -1.38784,-8.32 -0.46048,-1.61344 -1.51712,-3.45024 -1.46336,-5.12 m 23.679997,5.76 -4.90528,9.6 -1.8224,6.9024 -4.737917,1.79744 -4.5344,-4.21984 c 1.19136,-6.60224 9.861117,-12.62176 15.999997,-14.08 m -14.719997,21.12 -5.44,6.4 c -4.6336,-1.32224 -3.41216,-4.01504 -5.58528,-7.68 -1.63936,-2.7648 -3.95616,-4.61888 -6.57472,-6.4 5.68224,-3.0208 15.17824,2.5904 17.6,7.68 m 20.159997,-0.96 c -1.1072,1.69536 -3.56768,2.60736 -5.12,3.936 -4.36032,3.73216 -7.81536,12.85632 -14.399997,7.46112 -0.712,-0.58336 -2.05408,-1.2752 -2.32416,-2.22112 -0.50848,-1.7808 2.4752,-4.28352 3.60416,-5.27712 5.245437,-4.616 11.787837,-4.176 18.239997,-3.89888 m -20.159997,15.68 v 0.32 l -6.72,7.68 c -2.73472,-6.35488 -5.13056,-11.15936 -11.52,-14.72 5.64032,-2.36672 14.44096,3.00192 18.24,6.72 m 20.479997,-0.96 v 0.32 l -7.03872,5.1248 -3.29728,3.29312 -3.744,-0.59072 -7.359997,-0.4672 c 3.79584,-7.3168 14.259197,-8.24672 21.439997,-7.68 m -12.48,12.16 c -3.6992,4.7936 -9.696637,5.82144 -13.119997,0 h 13.119997 m -10.239997,7.04 c -1.21632,2.39552 -4.5296,3.9728 -6.6912,5.484489 -0.84832,0.59296 -1.78336,1.53824 -2.91008,1.28 -2.23872,-0.51328 -4.45312,-3.003529 -6.39872,-4.204489 1.0176,-2.40352 5.90336,-8.02592 8.96,-7.34176 2.42624,0.54304 5.04384,3.34784 7.04,4.78176 m 23.039997,2.56 c -1.71072,1.22912 -4.26368,3.991049 -6.4,4.242889 -2.77408,0.32736 -7.31616,-4.740489 -9.6,-6.162889 v -0.64 c 2.07136,-1.2784 4.94272,-4.54048 7.36,-4.85152 2.95776,-0.3808 7.81312,4.97888 8.64,7.41152 m -9.92,6.720009 -7.04,5.43968 -2.879997,1.25408 -8.96,-6.05376 c 1.00384,-1.96512 7.60416,-7.393609 9.92,-6.732169 3.144637,0.89824 6.173757,4.372489 8.959997,6.092169 m -25.919997,0.64 -8,5.12 2.56,-9.28 c 2.03424,0.64928 4.4896,2.21504 5.44,4.16 m 38.079997,-4.16 c 1.66304,2.85984 2.49184,6.296 2.56,9.6 l -8,-5.44 v -0.64 l 5.44,-3.52 m -24.959997,12.8 v 0.32 c -2.15584,1.544 -6.9264,6.45024 -9.6,6.37536 -2.58464,-0.0723 -7.33504,-4.71648 -9.28,-6.37536 l 6.72,-5.25568 2.88,-1.41408 9.28,6.34976 m 25.599997,0 v 0.32 c -2.11136,1.67552 -6.55712,6.2944 -9.28,6.42176 -2.64928,0.12384 -7.56192,-4.80544 -9.6,-6.42176 1.6736,-2.16864 4.47168,-3.68736 6.72,-5.22912 0.80832,-0.55424 1.81952,-1.5392 2.88,-1.4 2.85728,0.37504 7.01408,4.56256 9.28,6.30912 m -12.8,9.92 c -2.73152,1.68608 -5.5632,5.0944 -8.639997,6.00896 -1.21152,0.36 -2.27968,-0.59968 -3.2,-1.25408 -2.21344,-1.57376 -5.7872,-3.26272 -7.04,-5.71488 2.85824,-1.62848 5.74272,-5.22816 8.96,-6.02912 1.09152,-0.27168 2.05504,0.59904 2.879997,1.18432 2.25536,1.60064 5.76544,3.29472 7.04,5.8048 m -33.599997,-6.4 7.68,5.44 c -1.24832,2.45792 -5.44896,5.11296 -8,6.08 0,-3.32384 -0.96352,-8.4608 0.32,-11.52 m 48.319997,0.32 v 11.2 l -8,-5.44 c 1.93472,-2.17824 5.272,-4.72576 8,-5.76 m -27.199997,14.72 c -1.40608,1.82208 -7.19456,7.08672 -9.6,6.80288 -3.07328,-0.36256 -6.9648,-4.84192 -9.6,-6.48288 1.23168,-2.41056 4.8336,-4.15648 7.04,-5.66912 0.85568,-0.58656 1.77248,-1.376 2.88,-1.06272 3.24864,0.9184 6.40896,4.624 9.28,6.41184 m 25.279997,-0.32 c -1.69536,2.1968 -4.47488,3.65664 -6.72,5.25664 -0.81216,0.5792 -1.8,1.59712 -2.88,1.52224 -2.62848,-0.18272 -6.98656,-4.456 -8.96,-6.13888 1.43456,-1.76224 7.20256,-7.1344 9.6,-6.67776 2.98848,0.56928 6.3584,4.43232 8.96,6.03776 m -12.8,9.28 c -1.50624,1.82368 -7.15328,6.7744 -9.599997,6.69664 -2.38752,-0.0762 -7.49376,-4.57568 -8.96,-6.37664 2.16992,-1.48064 6.91456,-6.60384 9.6,-6.34976 2.811197,0.26624 6.642557,4.45344 8.959997,6.02976 m -33.279997,-5.44 8,5.76 v 0.64 l -5.76,3.84 c -1.16288,-2.83424 -3.54016,-7.1408 -2.24,-10.24 m 47.999997,0 c -0.0685,3.31872 -1.00256,6.67584 -2.56,9.6 l -5.44,-3.84 c 1.83488,-2.22176 5.3072,-4.72416 8,-5.76 m -4.8,12.48 c -0.74144,2.72224 -5.2656,7.4192 -8.32,7.46624 -2.17792,0.0333 -6.73984,-3.70624 -7.68,-5.54624 2.3184,-1.29184 6.94848,-6.41824 9.6,-6.07008 2.13984,0.28096 4.5776,3.02528 6.4,4.15008 m -23.039997,1.92 c -0.8864,1.81408 -5.52224,5.79712 -7.68,5.58016 -1.71168,-0.17248 -3.60224,-1.93888 -4.8,-3.04896 -0.824,-0.76352 -2.43264,-1.94304 -2.58528,-3.1424 -0.14336,-1.12576 1.52032,-1.98912 2.26528,-2.54816 3.08448,-2.31488 4.09856,-3.00192 7.36,-0.68064 1.80864,1.28736 3.60448,2.59136 5.44,3.84 m 10.239997,7.36 c -3.67744,2.24608 -9.181117,1.13248 -13.119997,0.32 1.14752,-1.4096 4.76448,-4.832 6.72,-4.54656 2.104317,0.30688 4.650877,3.0368 6.399997,4.22656 z"
       id="path231" />
  </g>
</svg>
