<?xml version="1.0" encoding="UTF-8" standalone="no"?>
<!-- Created with Inkscape (http://www.inkscape.org/) -->

<svg
   version="1.1"
   id="svg177"
   width="195.84"
   height="195.84"
   viewBox="0 0 195.84 195.84"
   sodipodi:docname="pineapple_interior.svg"
   inkscape:version="1.2.2 (732a01da63, 2022-12-09)"
   xmlns:inkscape="http://www.inkscape.org/namespaces/inkscape"
   xmlns:sodipodi="http://sodipodi.sourceforge.net/DTD/sodipodi-0.dtd"
   xmlns="http://www.w3.org/2000/svg"
   xmlns:svg="http://www.w3.org/2000/svg">
  <defs
     id="defs181" />
  <sodipodi:namedview
     id="namedview179"
     pagecolor="#ffffff"
     bordercolor="#000000"
     borderopacity="0.25"
     inkscape:showpageshadow="2"
     inkscape:pageopacity="0.0"
     inkscape:pagecheckerboard="0"
     inkscape:deskcolor="#d1d1d1"
     showgrid="false"
     inkscape:zoom="4.2738971"
     inkscape:cx="97.919998"
     inkscape:cy="97.803009"
     inkscape:window-width="1920"
     inkscape:window-height="1017"
     inkscape:window-x="-8"
     inkscape:window-y="32"
     inkscape:window-maximized="1"
     inkscape:current-layer="g183" />
  <g
     inkscape:groupmode="layer"
     inkscape:label="Image"
     id="g183">
    <path
       style="fill:#444444;stroke:none;stroke-width:0.32"
       d="m 60.252904,104.99785 h -1.6 c -0.44128,10.27424 -3.23936,20.7008 -1.15648,31.03872 1.47936,7.34272 0.9952,15.26176 6.70848,21.08416 4.12672,4.20544 7.9568,5.51232 13.328,7.53312 6.31264,2.37504 13.31296,4.7456 20.16,2.90752 7.834876,-2.10336 15.642876,-9.96032 19.018236,-17.12832 1.98496,-4.21504 2.30112,-8.94016 2.83296,-13.4352 0.5136,-4.33664 1.46016,-9.06912 0.80064,-13.44 -0.31552,-2.09024 -1.56448,-3.9456 -1.79616,-6.08 -0.55072,-5.0672 0.53792,-10.3056 -0.0982,-15.36 -0.18688,-1.48704 -1.18784,-2.701761 -1.51808,-4.160001 -0.83076,-3.66656 -3.2378,-7.86816 -7.3994,-8.32 v -0.32 c 1.26304,-0.31104 3.27712,-0.27936 4.1152,-1.4176 1.00256,-1.36096 0.21696,-3.21824 1.01376,-4.59552 1.4128,-2.44288 3.39616,-4.38912 2.03808,-7.71328 -0.56928,-1.39328 -2.85888,-2.51328 -3.96704,-3.5536 5.18688,-0.98592 9.31648,-7.35776 5.1344,-12.0224 -1.5856,-1.76864 -5.71264,-2.91712 -8.0144,-3.0176 1.54592,-5.22944 3.05792,-9.18144 2.92128,-14.72 -0.0381,-1.54048 0.79456,-3.5904 -0.34144,-4.93952 -1.26112,-1.49728 -7.59328,-0.87168 -9.61984,-1.1232 -8.133436,-1.00992 -16.309756,-2.54912 -24.291196,-4.263712 -2.16448,-0.464928 -6.90656,-2.26032 -8.624,0.183456 -3.48896,4.964416 4.3424,8.764736 2.56416,12.968576 -1.59616,3.77312 -5.20256,6.3616 -9.00896,7.53504 -1.36736,0.42176 -3.23328,0.18784 -4.40704,1.0768 -2.0816,1.57728 -0.52608,4.49088 -0.3312,6.48256 0.34944,3.57216 -2.2608,6.7744 -1.03744,10.56 1.78976,5.53728 5.94592,7.27072 10.04096,10.57472 1.98656,1.60288 5.28064,3.82848 4.93856,6.9792 -0.12544,1.15616 -3.48,2.62176 -4.34688,3.60448 -3.10336,3.51872 -6.92288,8.462721 -8.05696,13.081601 m 41.599996,-60.480001 -4.905276,9.6 -1.8224,6.9024 -4.73792,1.79744 -4.5344,-4.21984 c 1.19136,-6.60224 9.86112,-12.62176 15.999996,-14.08 m -14.719996,21.12 -5.44,6.4 c -4.6336,-1.32224 -3.41216,-4.01504 -5.58528,-7.68 -1.63936,-2.7648 -3.95616,-4.61888 -6.57472,-6.4 5.68224,-3.0208 15.17824,2.5904 17.6,7.68 m 20.159996,-0.96 c -1.1072,1.69536 -3.56768,2.60736 -5.12,3.936 -4.360316,3.73216 -7.815356,12.85632 -14.399996,7.46112 -0.712,-0.58336 -2.05408,-1.2752 -2.32416,-2.22112 -0.50848,-1.7808 2.4752,-4.28352 3.60416,-5.27712 5.24544,-4.616 11.787836,-4.176 18.239996,-3.89888 m -20.159996,15.68 v 0.32 l -6.72,7.68 c -2.73472,-6.35488 -5.13056,-11.15936 -11.52,-14.72 5.64032,-2.36672 14.44096,3.00192 18.24,6.72 m 20.479996,-0.96 v 0.32 l -7.03872,5.1248 -3.297276,3.29312 -3.744,-0.59072 -7.36,-0.4672 c 3.79584,-7.3168 14.259196,-8.24672 21.439996,-7.68 m -12.479996,12.16 c -3.6992,4.7936 -9.69664,5.82144 -13.12,0 h 13.12 m -10.24,7.04 c -1.21632,2.395521 -4.5296,3.972801 -6.6912,5.484481 -0.84832,0.59296 -1.78336,1.53824 -2.91008,1.28 -2.23872,-0.51328 -4.45312,-3.00352 -6.39872,-4.20448 1.0176,-2.403521 5.90336,-8.025921 8.96,-7.341761 2.42624,0.54304 5.04384,3.34784 7.04,4.78176 m 23.039996,2.560001 c -1.71072,1.22912 -4.26368,3.99104 -6.4,4.24288 -2.774076,0.32736 -7.316156,-4.74048 -9.599996,-6.162881 v -0.64 c 2.07136,-1.2784 4.94272,-4.54048 7.36,-4.85152 2.957756,-0.3808 7.813116,4.97888 8.639996,7.411521 m -9.919996,6.72 -7.04,5.43968 -2.88,1.25408 -8.96,-6.05376 c 1.00384,-1.96512 7.60416,-7.3936 9.92,-6.73216 3.14464,0.89824 6.17376,4.37248 8.96,6.09216 m -25.92,0.64 -8,5.12 2.56,-9.28 c 2.03424,0.64928 4.4896,2.21504 5.44,4.16 m 38.079996,-4.16 c 1.66304,2.85984 2.49184,6.296 2.56,9.6 l -8,-5.44 v -0.64 l 5.44,-3.52 m -24.959996,12.8 v 0.32 c -2.15584,1.544 -6.9264,6.45024 -9.6,6.37536 -2.58464,-0.0723 -7.33504,-4.71648 -9.28,-6.37536 l 6.72,-5.25568 2.88,-1.41408 9.28,6.34976 m 25.599996,0 v 0.32 c -2.11136,1.67552 -6.55712,6.2944 -9.28,6.42176 -2.649276,0.12384 -7.561916,-4.80544 -9.599996,-6.42176 1.6736,-2.16864 4.47168,-3.68736 6.72,-5.22912 0.80832,-0.55424 1.819516,-1.5392 2.879996,-1.4 2.85728,0.37504 7.01408,4.56256 9.28,6.30912 m -12.799996,9.92 c -2.73152,1.68608 -5.5632,5.0944 -8.64,6.00896 -1.21152,0.36 -2.27968,-0.59968 -3.2,-1.25408 -2.21344,-1.57376 -5.7872,-3.26272 -7.04,-5.71488 2.85824,-1.62848 5.74272,-5.22816 8.96,-6.02912 1.09152,-0.27168 2.05504,0.59904 2.88,1.18432 2.25536,1.60064 5.76544,3.29472 7.04,5.8048 m -33.6,-6.4 7.68,5.44 c -1.24832,2.45792 -5.44896,5.11296 -8,6.08 0,-3.32384 -0.96352,-8.4608 0.32,-11.52 m 48.319996,0.32 v 11.2 l -8,-5.44 c 1.93472,-2.17824 5.272,-4.72576 8,-5.76 m -27.199996,14.72 c -1.40608,1.82208 -7.19456,7.08672 -9.6,6.80288 -3.07328,-0.36256 -6.9648,-4.84192 -9.6,-6.48288 1.23168,-2.41056 4.8336,-4.15648 7.04,-5.66912 0.85568,-0.58656 1.77248,-1.376 2.88,-1.06272 3.24864,0.9184 6.40896,4.624 9.28,6.41184 m 25.279996,-0.32 c -1.69536,2.1968 -4.47488,3.65664 -6.72,5.25664 -0.81216,0.5792 -1.8,1.59712 -2.88,1.52224 -2.628476,-0.18272 -6.986556,-4.456 -8.959996,-6.13888 1.43456,-1.76224 7.20256,-7.1344 9.599996,-6.67776 2.98848,0.56928 6.3584,4.43232 8.96,6.03776 m -12.799996,9.28 c -1.50624,1.82368 -7.15328,6.7744 -9.6,6.69664 -2.38752,-0.0762 -7.49376,-4.57568 -8.96,-6.37664 2.16992,-1.48064 6.91456,-6.60384 9.6,-6.34976 2.8112,0.26624 6.64256,4.45344 8.96,6.02976 m -33.28,-5.44 8,5.76 v 0.64 l -5.76,3.84 c -1.16288,-2.83424 -3.54016,-7.1408 -2.24,-10.24 m 47.999996,0 c -0.0685,3.31872 -1.00256,6.67584 -2.56,9.6 l -5.44,-3.84 c 1.83488,-2.22176 5.3072,-4.72416 8,-5.76 m -4.8,12.48 c -0.74144,2.72224 -5.2656,7.4192 -8.319996,7.46624 -2.17792,0.0333 -6.73984,-3.70624 -7.68,-5.54624 2.3184,-1.29184 6.94848,-6.41824 9.599996,-6.07008 2.13984,0.28096 4.5776,3.02528 6.4,4.15008 m -23.039996,1.92 c -0.8864,1.81408 -5.52224,5.79712 -7.68,5.58016 -1.71168,-0.17248 -3.60224,-1.93888 -4.8,-3.04896 -0.824,-0.76352 -2.43264,-1.94304 -2.58528,-3.1424 -0.14336,-1.12576 1.52032,-1.98912 2.26528,-2.54816 3.08448,-2.31488 4.09856,-3.00192 7.36,-0.68064 1.80864,1.28736 3.60448,2.59136 5.44,3.84 m 10.24,7.36 c -3.67744,2.24608 -9.18112,1.13248 -13.12,0.32 1.14752,-1.4096 4.76448,-4.832 6.72,-4.54656 2.10432,0.30688 4.65088,3.0368 6.4,4.22656 z"
       id="path187" />
  </g>
</svg>
