<?xml version="1.0" encoding="UTF-8" standalone="no"?>
<!-- Created with Inkscape (http://www.inkscape.org/) -->

<svg
   version="1.1"
   id="svg2"
   width="195.84"
   height="195.84"
   viewBox="0 0 195.84 195.84"
   sodipodi:docname="pineapple_outline.svg"
   inkscape:version="1.2.2 (732a01da63, 2022-12-09)"
   xmlns:inkscape="http://www.inkscape.org/namespaces/inkscape"
   xmlns:sodipodi="http://sodipodi.sourceforge.net/DTD/sodipodi-0.dtd"
   xmlns="http://www.w3.org/2000/svg"
   xmlns:svg="http://www.w3.org/2000/svg">
  <defs
     id="defs6" />
  <sodipodi:namedview
     id="namedview4"
     pagecolor="#ffffff"
     bordercolor="#000000"
     borderopacity="0.25"
     inkscape:showpageshadow="2"
     inkscape:pageopacity="0.0"
     inkscape:pagecheckerboard="0"
     inkscape:deskcolor="#d1d1d1"
     showgrid="false"
     inkscape:zoom="4.2738971"
     inkscape:cx="84.466235"
     inkscape:cy="97.803009"
     inkscape:window-width="1920"
     inkscape:window-height="1017"
     inkscape:window-x="-8"
     inkscape:window-y="32"
     inkscape:window-maximized="1"
     inkscape:current-layer="g8" />
  <g
     inkscape:groupmode="layer"
     inkscape:label="Image"
     id="g8">
    <path
       style="fill:#434343;stroke:none;stroke-width:0.32"
       d="m 72.843011,66.756129 c -3.69216,-0.29152 -7.22336,-0.45408 -10.88,0.3952 -1.26368,0.29376 -3.08416,0.6384 -3.34656,2.1696 -0.40864,2.38656 4.30752,3.19456 5.90656,3.93408 4.14144,1.91616 11.01728,7.03264 10.62976,12.37632 -0.13888,1.91104 -3.82272,3.24032 -5.18976,4.3008 -3.53536,2.74336 -6.376,6.336 -8.22016,10.424001 -3.02816,6.712 -2.33984,13.94848 -2.33984,21.12 0,14.00352 -0.9008,27.28768 11.84,36.4304 2.27808,1.63488 4.99136,2.94464 7.68,3.74944 14.65088,4.38432 30.619519,-3.66336 35.191999,-18.41984 2.42368,-7.8224 1.288,-16.86016 1.288,-24.96 0,-11.48384 -2.27168,-26.896641 -15.36,-31.040001 1.72512,-3.76352 6.41504,-6.43712 9.92,-8.3632 1.31584,-0.7232 3.32064,-1.11456 4.28672,-2.3216 2.31552,-2.89312 -2.97216,-3.51488 -4.60672,-3.6992 -1.2864,-0.14496 -2.5424,-0.3296 -3.84,-0.33568 l -6.079999,-3.2e-4 c 2.402239,-3.11392 5.093119,-5.50016 8.639999,-7.2736 1.5792,-0.78976 5.03776,-1.2784 6.0224,-2.78048 1.36576,-2.0832 -1.32128,-3.07296 -2.8224,-3.47072 -3.82272,-1.01312 -9.24704,-2.34016 -13.119999,-1.1952 -0.91296,-4.69408 2.996479,-10.87264 5.724159,-14.4 1.0784,-1.39456 4.57984,-3.87648 3.17824,-5.94112 -1.16064,-1.71008 -5.4016,-0.33824 -6.9824,0.09952 -5.679999,1.57376 -8.945919,4.08544 -12.040639,9.0416 -1.11104,1.7792 -2.4784,7.57664 -4.61312,8.05856 -2.21824,0.50048 -6.82176,-2.62368 -8.94624,-3.4288 -2.74112,-1.03904 -6.44128,-0.552 -9.28,-0.14944 -1.54464,0.21888 -4.49152,0.4608 -5.33344,1.99168 -1.24032,2.25568 1.95584,3.09408 3.41344,3.72032 4.13952,1.77824 8.85216,5.10272 9.28,9.96768 z"
       id="path170" />
  </g>
</svg>
